HIERARCHY
ROOT hip
{
  OFFSET 303.552 83.3416 -2.22149
  CHANNELS 6 Xposition Yposition Zposition Zrotation Xrotation Yrotation
  JOINT abdomen
  {
    OFFSET 0 20.6881 -0.73152
    CHANNELS 3 Zrotation Xrotation Yrotation
    JOINT chest
    {
      OFFSET 0 11.7043 -0.48768
      CHANNELS 3 Zrotation Xrotation Yrotation
      JOINT neck
      {
        OFFSET 0 22.1894 -2.19456
        CHANNELS 3 Zrotation Xrotation Yrotation
        JOINT head
        {
          OFFSET -0.24384 7.07133 1.2192
          CHANNELS 3 Zrotation Xrotation Yrotation
          JOINT leftEye
          {
            OFFSET 4.14528 8.04674 8.04672
            CHANNELS 3 Zrotation Xrotation Yrotation
            End Site
            {
              OFFSET 1 0 0
            }
          }
          JOINT rightEye
          {
            OFFSET -3.6576 8.04674 8.04672
            CHANNELS 3 Zrotation Xrotation Yrotation
            End Site
            {
              OFFSET 1 0 0
            }
          }
        }
      }
      JOINT rCollar
      {
        OFFSET -2.68224 19.2634 -4.8768
        CHANNELS 3 Zrotation Xrotation Yrotation
        JOINT rShldr
        {
          OFFSET -8.77824 -1.95073 1.46304
          CHANNELS 3 Zrotation Xrotation Yrotation
          JOINT rForeArm
          {
            OFFSET -28.1742 -1.7115 0.48768
            CHANNELS 3 Zrotation Xrotation Yrotation
            JOINT rHand
            {
              OFFSET -22.5879 0.773209 7.07136
              CHANNELS 3 Zrotation Xrotation Yrotation
              JOINT rThumb1
              {
                OFFSET -1.2192 -0.487915 3.41376
                CHANNELS 3 Zrotation Xrotation Yrotation
                JOINT rThumb2
                {
                  OFFSET -3.37035 -0.52449 3.41376
                  CHANNELS 3 Zrotation Xrotation Yrotation
                  End Site
                  {
                    OFFSET -1.78271 -1.18214 1.43049
                  }
                }
              }
              JOINT rIndex1
              {
                OFFSET -7.75947 0.938293 5.60832
                CHANNELS 3 Zrotation Xrotation Yrotation
                JOINT rIndex2
                {
                  OFFSET -2.54057 -0.884171 1.56538
                  CHANNELS 3 Zrotation Xrotation Yrotation
                  End Site
                  {
                    OFFSET -1.62519 -0.234802 1.16502
                  }
                }
              }
              JOINT rMid1
              {
                OFFSET -8.24714 1.18213 3.41376
                CHANNELS 3 Zrotation Xrotation Yrotation
                JOINT rMid2
                {
                  OFFSET -3.10165 -0.590103 1.0647
                  CHANNELS 3 Zrotation Xrotation Yrotation
                  End Site
                  {
                    OFFSET -2.48547 -0.328903 0.83742
                  }
                }
              }
              JOINT rRing1
              {
                OFFSET -8.82822 0.546677 1.51678
                CHANNELS 3 Zrotation Xrotation Yrotation
                JOINT rRing2
                {
                  OFFSET -2.60934 -0.819778 -0.0198488
                  CHANNELS 3 Zrotation Xrotation Yrotation
                  End Site
                  {
                    OFFSET -2.33842 -0.294052 0.168128
                  }
                }
              }
              JOINT rPinky1
              {
                OFFSET -8.27202 -0.0477905 -0.4584
                CHANNELS 3 Zrotation Xrotation Yrotation
                JOINT rPinky2
                {
                  OFFSET -1.82734 -0.647385 -0.700984
                  CHANNELS 3 Zrotation Xrotation Yrotation
                  End Site
                  {
                    OFFSET -1.69225 -0.51767 -0.607171
                  }
                }
              }
            }
          }
        }
      }
      JOINT lCollar
      {
        OFFSET 2.68224 19.2634 -4.8768
        CHANNELS 3 Zrotation Xrotation Yrotation
        JOINT lShldr
        {
          OFFSET 8.77824 -1.95073 1.46304
          CHANNELS 3 Zrotation Xrotation Yrotation
          JOINT lForeArm
          {
            OFFSET 28.1742 -1.7115 0.48768
            CHANNELS 3 Zrotation Xrotation Yrotation
            JOINT lHand
            {
              OFFSET 22.5879 0.773209 7.07136
              CHANNELS 3 Zrotation Xrotation Yrotation
              JOINT lThumb1
              {
                OFFSET 1.2192 -0.487915 3.41376
                CHANNELS 3 Zrotation Xrotation Yrotation
                JOINT lThumb2
                {
                  OFFSET 3.37035 -0.52449 3.41376
                  CHANNELS 3 Zrotation Xrotation Yrotation
                  End Site
                  {
                    OFFSET 1.78271 -1.18214 1.43049
                  }
                }
              }
              JOINT lIndex1
              {
                OFFSET 7.75947 0.938293 5.60832
                CHANNELS 3 Zrotation Xrotation Yrotation
                JOINT lIndex2
                {
                  OFFSET 2.54057 -0.884171 1.56538
                  CHANNELS 3 Zrotation Xrotation Yrotation
                  End Site
                  {
                    OFFSET 1.62519 -0.234802 1.16502
                  }
                }
              }
              JOINT lMid1
              {
                OFFSET 8.24714 1.18213 3.41376
                CHANNELS 3 Zrotation Xrotation Yrotation
                JOINT lMid2
                {
                  OFFSET 3.10165 -0.590103 1.0647
                  CHANNELS 3 Zrotation Xrotation Yrotation
                  End Site
                  {
                    OFFSET 2.48547 -0.328903 0.83742
                  }
                }
              }
              JOINT lRing1
              {
                OFFSET 8.82822 0.546677 1.51678
                CHANNELS 3 Zrotation Xrotation Yrotation
                JOINT lRing2
                {
                  OFFSET 2.60934 -0.819778 -0.0198488
                  CHANNELS 3 Zrotation Xrotation Yrotation
                  End Site
                  {
                    OFFSET 2.33842 -0.294052 0.168128
                  }
                }
              }
              JOINT lPinky1
              {
                OFFSET 8.27202 -0.0477905 -0.4584
                CHANNELS 3 Zrotation Xrotation Yrotation
                JOINT lPinky2
                {
                  OFFSET 1.82734 -0.647385 -0.700984
                  CHANNELS 3 Zrotation Xrotation Yrotation
                  End Site
                  {
                    OFFSET 1.69225 -0.51767 -0.607171
                  }
                }
              }
            }
          }
        }
      }
    }
  }
  JOINT rButtock
  {
    OFFSET -8.77824 4.35084 1.2192
    CHANNELS 3 Zrotation Xrotation Yrotation
    JOINT rThigh
    {
      OFFSET 0 -1.70687 -2.19456
      CHANNELS 3 Zrotation Xrotation Yrotation
      JOINT rShin
      {
        OFFSET 0 -36.8199 0.73152
        CHANNELS 3 Zrotation Xrotation Yrotation
        JOINT rFoot
        {
          OFFSET 0.73152 -45.1104 -5.12064
          CHANNELS 3 Zrotation Xrotation Yrotation
          End Site
          {
            OFFSET -1.1221 -3.69964 12.103
          }
        }
      }
    }
  }
  JOINT lButtock
  {
    OFFSET 8.77824 4.35084 1.2192
    CHANNELS 3 Zrotation Xrotation Yrotation
    JOINT lThigh
    {
      OFFSET 0 -1.70687 -2.19456
      CHANNELS 3 Zrotation Xrotation Yrotation
      JOINT lShin
      {
        OFFSET 0 -36.8199 0.73152
        CHANNELS 3 Zrotation Xrotation Yrotation
        JOINT lFoot
        {
          OFFSET -0.73152 -45.1104 -5.12064
          CHANNELS 3 Zrotation Xrotation Yrotation
          End Site
          {
            OFFSET 1.1221 -3.69964 12.103
          }
        }
      }
    }
  }
}
MOTION
Frames:	5
Frame Time:	0.00833333
-166.248 85.4571 13.3199 -1.46715 0.00515112 0.0277554 1.92987 -0.00172184 0.0523823 0.532079 0.00507097 0.092122 4.7101e-014 -7.95139e-016 -5.2181e-016 1.41706e-013 3.18055e-015 -1.74247e-015 -0 0 0 -0 0 0 2.39527e-014 -5.97907e-017 -4.96962e-017 4.98294e-013 -1.17407e-015 -3.57812e-015 8.56836e-012 -2.59295e-012 -2.03556e-013 9.79105e-011 2.34486e-012 -9.85972e-013 2.3099e-010 -5.3946e-013 -2.56989e-012 3.98908e-010 -9.35083e-013 -4.44164e-012 2.30992e-010 -5.42285e-013 -2.58261e-012 7.73091 5.47488 0.417314 2.30989e-010 -5.40197e-013 -2.56989e-012 2.90554 0.965183 0.102902 2.30992e-010 -5.397e-013 -2.56989e-012 10.2786 0.731801 0.0259123 2.30978e-010 -5.35923e-013 -2.55399e-012 2.22167 -0.733487 -0.20892 2.37572e-014 -5.53258e-017 -5.46658e-016 4.95529e-013 -1.08089e-015 -4.96962e-015 8.54764e-012 2.52119e-012 -1.90833e-013 9.7947e-011 -2.77354e-012 -9.70069e-013 2.31027e-010 -5.48439e-013 -2.55717e-012 3.98989e-010 -9.47805e-013 -4.43131e-012 2.31025e-010 -5.51031e-013 -2.55717e-012 -7.73091 5.47488 -0.417314 2.31028e-010 -5.48944e-013 -2.56035e-012 -2.90554 0.965183 -0.102902 2.31027e-010 -5.49043e-013 -2.56114e-012 -10.2786 0.731801 -0.0259123 2.31032e-010 -5.45465e-013 -2.57307e-012 -2.22167 -0.733487 0.20892 -2.03217e-016 0 -3.88251e-019 1.9595 -7.26115 -0.192018 0.00412053 7.58527 0.107062 -0.521311 -0.330663 0.0523308 2.03217e-016 0 3.88251e-019 0.976703 -1.92613 0.000869431 0.00898698 -2.0786 0.0740612 0.487848 3.99809 -0.136733 
-160.256 84.8549 5.0944 -2.27691 -0.542798 23.0348 1.32395 2.18888 0.771016 0.936358 -0.57107 0.335018 0.894147 -1.44328 0.802051 -0.578678 1.65261 1.40093 -0 0 0 -0 0 0 3.06643e-014 6.90072e-013 -4.31922e-014 21.8371 9.57214 1.87324 -4.25065 -1.93749 6.63245 0.01585 2.79342 0.390906 2.56195e-010 1.80213e-011 1.57767e-011 4.42921e-010 3.13597e-011 2.63735e-011 2.56198e-010 1.80199e-011 1.5765e-011 7.73091 5.47488 0.417314 2.56195e-010 1.80208e-011 1.57777e-011 2.90554 0.965183 0.102902 2.56199e-010 1.80213e-011 1.57763e-011 10.2786 0.731801 0.0259123 2.56186e-010 1.80241e-011 1.57901e-011 2.22167 -0.733487 -0.20892 3.0464e-014 6.90072e-013 -4.36542e-014 -21.5718 12.7674 -2.7841 3.83824 -1.67442 -6.06827 -0.0147819 2.69744 -0.377583 1.48321e-010 -1.09029e-010 1.41642e-011 2.55939e-010 -1.89087e-010 2.51314e-011 1.48316e-010 -1.09032e-010 1.41678e-011 -7.73091 5.47488 -0.417314 1.48321e-010 -1.09031e-010 1.41591e-011 -2.90554 0.965183 -0.102902 1.48319e-010 -1.09032e-010 1.41598e-011 -10.2786 0.731801 -0.0259123 1.48327e-010 -1.09029e-010 1.41492e-011 -2.22167 -0.733487 0.20892 -2.03217e-016 0 -3.88251e-019 -0.358469 -4.94757 -2.20239 0.00464768 8.33596 0.133917 -0.594942 -4.61681 -2.11947 2.03217e-016 0 3.88251e-019 3.11103 -1.17715 0.829497 0.00371976 0.849127 -0.0140693 0.712257 -0.152273 2.55857 
-160.264 84.8502 5.12277 -2.71098 -0.818994 47.3604 0.622752 4.50091 1.53669 1.36832 -1.17978 0.592512 1.88344 -2.96685 1.65122 -1.27791 3.39228 2.88481 -0 0 0 -0 0 0 3.84706e-014 1.45031e-012 -9.08197e-014 44.2045 19.6515 4.03653 -8.25889 -3.89839 13.6664 -0.00904364 5.74987 0.807789 3.03014e-010 4.16535e-011 2.16212e-011 5.24207e-010 7.24542e-011 3.53126e-011 3.03018e-010 4.16537e-011 2.16107e-011 7.73091 5.47488 0.417314 3.03015e-010 4.16533e-011 2.16234e-011 2.90554 0.965183 0.102902 3.0302e-010 4.16538e-011 2.16204e-011 10.2786 0.731801 0.0259123 3.03008e-010 4.16557e-011 2.16321e-011 2.22167 -0.733487 -0.20892 3.82628e-014 1.4503e-012 -9.12484e-014 -42.8879 26.1661 -6.2251 7.51209 -3.38164 -12.4992 0.00841302 5.5482 -0.779476 3.61096e-011 -2.25728e-010 4.53642e-011 6.19809e-011 -3.91553e-010 8.0023e-011 3.61017e-011 -2.25732e-010 4.53718e-011 -7.73091 5.47488 -0.417314 3.61089e-011 -2.25732e-010 4.53569e-011 -2.90554 0.965183 -0.102902 3.6105e-011 -2.25734e-010 4.53594e-011 -10.2786 0.731801 -0.0259123 3.61166e-011 -2.25731e-010 4.53501e-011 -2.22167 -0.733487 0.20892 -2.03217e-016 0 -3.88251e-019 -2.63301 -2.50515 -4.31591 0.00444458 9.13015 0.162454 -1.03012 -9.12796 -4.45876 2.03217e-016 0 3.88251e-019 5.34302 -0.388451 1.70551 0.00825372 3.94496 -0.107447 1.37429 -4.52025 5.42451 
-160.271 84.8477 5.10124 -2.92665 -0.636404 69.0547 -0.0536337 6.56579 2.22117 1.75958 -1.7232 0.821132 2.80392 -4.32644 2.41227 -1.97901 4.94595 4.21678 -0 0 0 -0 0 0 4.40876e-014 2.07033e-012 -1.29477e-013 63.4159 28.5848 6.31359 -11.4311 -5.50158 19.9819 -0.0678422 8.3787 1.18396 3.06606e-010 5.51427e-011 5.24698e-011 5.30947e-010 9.59493e-011 8.80039e-011 3.0661e-010 5.51443e-011 5.24601e-011 7.73091 5.47488 0.417314 3.06607e-010 5.51427e-011 5.24728e-011 2.90554 0.965183 0.102902 3.06613e-010 5.51433e-011 5.24686e-011 10.2786 0.731801 0.0259123 3.06602e-010 5.51442e-011 5.24783e-011 2.22167 -0.733487 -0.20892 4.38776e-014 2.07033e-012 -1.29869e-013 -60.1673 37.8901 -10.3428 10.4674 -4.79831 -18.2633 0.0632176 8.0909 -1.14287 -1.7092e-011 -3.2599e-010 4.76069e-011 -3.01631e-011 -5.65365e-010 8.42568e-011 -1.71021e-011 -3.25994e-010 4.76178e-011 -7.73091 5.47488 -0.417314 -1.70933e-011 -3.25996e-010 4.75979e-011 -2.90554 0.965183 -0.102902 -1.70987e-011 -3.25998e-010 4.76017e-011 -10.2786 0.731801 -0.0259123 -1.7084e-011 -3.25995e-010 4.75936e-011 -2.22167 -0.733487 0.20892 -2.03217e-016 0 -3.88251e-019 -4.50862 -0.329303 -6.20168 0.00355831 9.83734 0.188023 -1.73693 -13.1137 -6.6157 2.03217e-016 0 3.88251e-019 7.31472 0.320127 2.48627 0.0202944 6.70454 -0.191538 2.33709 -8.37167 8.03465 
-160.275 84.8446 5.10543 -3.09875 -0.226646 84.1691 -0.550103 8.01689 2.69041 2.03865 -2.10357 0.977264 3.46682 -5.27935 2.94721 -2.51437 6.04584 5.1559 -0 0 0 -0 0 0 4.42309e-014 2.33985e-012 -1.45709e-013 76.2823 34.7768 8.22463 -13.4332 -6.50603 24.4205 -0.12907 10.19 1.44755 2.0213e-010 4.32746e-011 1.45828e-010 3.51322e-010 7.54459e-011 2.50076e-010 2.02135e-010 4.32766e-011 1.45819e-010 7.73091 5.47488 0.417314 2.02132e-010 4.32745e-011 1.45832e-010 2.90554 0.965183 0.102902 2.02138e-010 4.3275e-011 1.45827e-010 10.2786 0.731801 0.0259123 2.02128e-010 4.32754e-011 1.45835e-010 2.22167 -0.733487 -0.20892 4.40325e-014 2.33984e-012 -1.46057e-013 -70.7734 45.8048 -14.3269 12.3577 -5.70263 -22.3044 0.120861 9.86477 -1.40041 7.7231e-011 -3.85159e-010 -2.25438e-011 1.32227e-010 -6.67544e-010 -3.81539e-011 7.72199e-011 -3.85163e-010 -2.2531e-011 -7.73091 5.47488 -0.417314 7.72291e-011 -3.85165e-010 -2.25533e-011 -2.90554 0.965183 -0.102902 7.72228e-011 -3.85168e-010 -2.25493e-011 -10.2786 0.731801 -0.0259123 7.72392e-011 -3.85166e-010 -2.25565e-011 -2.22167 -0.733487 0.20892 -2.03217e-016 0 -3.88251e-019 -5.72704 1.19462 -7.52354 0.00248543 10.327 0.205881 -2.41259 -15.8578 -8.17234 2.03217e-016 0 3.88251e-019 8.68114 0.829314 3.02883 0.0319215 8.62355 -0.250879 3.22015 -11.0162 9.90331 
